<?xml version="1.0" encoding="UTF-8"?>
<svg id="Layer_1" xmlns="http://www.w3.org/2000/svg" version="1.1" viewBox="0 0 1280 1024">
  <!-- Generator: Adobe Illustrator 29.6.0, SVG Export Plug-In . SVG Version: 2.1.1 Build 207)  -->
  <defs>
    <style>
      .st0 {
        fill: #002850;
      }

      .st1 {
        fill: #e6ff00;
      }

      .st2 {
        fill: #fff;
      }

      .st3 {
        fill: #00b4ff;
      }
    </style>
  </defs>
  <path class="st3" d="M237.4,802.95c-9.59,0-22.15-.1-34.2-.87-31.8-2.03-76.1-9.41-93.66-49.99-11.66-27.02-6.54-56.66,15.22-88.1l54.19-78.01h-.23s252.1-364.49,252.1-364.49l335.1-.43c1.2-.02,2.58-.03,3.98-.03l422.6-.5-47.88,92.47c-6.08,11.74-59.28,109.65-150.78,127.47.74,1.32,1.44,2.67,2.1,4.03,9.11,18.63,19.4,57.01-14.07,104.68l-175.67,253.19-568.74.58h-.07Z"/>
  <path class="st0" d="M769.91,231.32c-1.36,0-2.69.01-3.98.03l-329.72.42-237.85,343.88h.28s-65.43,94.19-65.43,94.19c-19.6,28.33-24.39,54.62-14.24,78.17,15.31,35.4,55.78,41.96,84.88,43.81,11.75.75,24.1.85,33.54.85h.06s563.36-.58,563.36-.58l172.64-248.82c30.42-43.35,21.36-77.66,13.24-94.26-2.9-5.94-6.55-11.43-10.91-16.46,96.4-7.39,153.32-111.97,159.7-124.28l40.1-77.44-405.68.48Z"/>
  <path class="st2" d="M239.99,743.27c-8.72,0-20.05-.08-30.45-.75-39.41-2.51-43.86-12.8-45.32-16.19-3.03-7.03-.13-16.77,8.86-29.77l83.38-120.02,272.58-.35-5.24,7.57c-12.29,17.78-29.45,43.06-38.66,56.65l-.14.2c-3.17,4.67-5.29,7.79-5.75,8.47-2.02,2.91-3.67,5.49-4.91,7.65l-9.21,16.06,17.66,1.56c.5.04,1.04.08,1.64.12,2.45.16,5.43.23,9.37.23h3.75c3.44,0,24.46-.04,24.46-.04,25.94-.04,32.38-3.25,45.98-22.9,2.97-4.3,34.36-50.18,86.1-125.87l2.45-3.58c.27-.39.56-.81.86-1.26l11.29-16.81-19.31-1.6c-.46-.04-.96-.08-1.5-.11-2.57-.16-5.7-.24-10.16-.24l-28.17.04c-25.61.03-31.89,3-44.77,21.12l-1.65,2.32-272.17.35,169.47-245.02,257.59-.33-9.69,14.01s18.82-8.75,25.41-10.81c6.91-2.16,22.4-3.28,33.64-3.29l328.39-.39-3.62,7c-2.04,3.93-50.66,96.26-124.53,96.26-27.63,0-97.76.05-274.91.29l-15.32.02c-24.86.03-31.51,1.94-45.45,22.1l-26.5,38.91,22.66-.95c.95-.04,1.9-.06,2.87-.06h52.24s9.07-.01,9.07-.01c49.37-.07,137.03-.18,169.41-.18,42.9,0,71.56,10.28,80.69,28.95,7.47,15.29-.54,32.15-8.58,43.6l-157.14,226.48-536.66.55h0Z"/>
  <path class="st1" d="M240.25,738.3c-8.63,0-19.84-.08-30.1-.74-24.12-1.54-37.95-6.02-41.11-13.31-2.27-5.26.61-13.93,8.34-25.09l81.73-117.64,260.4-.33c-16.62,24.03-42.73,62.69-44.53,65.28-7.44,10.77-11.2,18.29-8.35,24.88,2.74,6.33,9.87,7.63,17.18,8.1,2.59.17,5.68.24,9.72.24h.48c.31,0,1.14,0,3.29,0,3.42,0,10.22,0,23.86-.04h.55c26.05-.03,35.27-3.18,50.56-25.28,5.14-7.43,88.49-129.36,88.49-129.36,1.82-2.64,3.28-4.85,4.1-7.21,2.23-5.1,2.35-9.49.35-13.07-3.1-5.54-9.88-6.7-16.75-7.14-2.68-.17-5.92-.25-10.5-.25l-28.18.04c-25.47.03-34.74,2.99-49.28,23.45l-260.03.33,162.59-235.07,245.4-.31-26.04,37.65s14.49-16.02,36.41-26.96c13.16-6.57,20.5-10.76,48.27-10.79l320.39-.38s-48.32,93.3-119.63,93.3c-67.66,0-276.07.29-290.23.31-26.4.03-34.76,2.44-50,24.48l-40.07,58.83s19.23-13.33,43.13-13.37h52.23c24.37-.03,140.23-.19,178.48-.19,59.99,0,98.54,21.59,68.1,64.96l-155.51,224.14-533.76.55Z"/>
</svg>